<svg width="172" height="24" viewBox="0 0 172 24" fill="none" xmlns="http://www.w3.org/2000/svg">
<g clip-path="url(#clip0_7_35)">
<path d="M33.4988 4.76039V19.3058H29.55V4.76039H33.4988ZM35.3703 19.3058V4.76039H41.6487C42.7282 4.76039 43.6728 4.97346 44.4825 5.3996C45.2921 5.82573 45.9219 6.42469 46.3717 7.19647C46.8215 7.96825 47.0464 8.87024 47.0464 9.90244C47.0464 10.9441 46.8144 11.8461 46.3504 12.6084C45.8911 13.3707 45.2448 13.9578 44.4115 14.3698C43.5829 14.7817 42.6146 14.9877 41.5066 14.9877H37.7566V11.9195H40.7112C41.1752 11.9195 41.5706 11.839 41.8973 11.678C42.2287 11.5123 42.482 11.2779 42.6572 10.9749C42.8371 10.6719 42.9271 10.3144 42.9271 9.90244C42.9271 9.48577 42.8371 9.13066 42.6572 8.8371C42.482 8.5388 42.2287 8.31153 41.8973 8.15528C41.5706 7.99429 41.1752 7.9138 40.7112 7.9138H39.3191V19.3058H35.3703ZM62.5862 12.0331C62.5862 13.6524 62.2713 15.0184 61.6416 16.1311C61.0118 17.2391 60.1619 18.0795 59.0919 18.6524C58.0218 19.2206 56.8286 19.5047 55.5123 19.5047C54.1866 19.5047 52.9886 19.2183 51.9186 18.6453C50.8532 18.0677 50.0057 17.2249 49.376 16.1169C48.751 15.0042 48.4385 13.643 48.4385 12.0331C48.4385 10.4138 48.751 9.05017 49.376 7.94221C50.0057 6.82952 50.8532 5.98909 51.9186 5.4209C52.9886 4.84799 54.1866 4.56153 55.5123 4.56153C56.8286 4.56153 58.0218 4.84799 59.0919 5.4209C60.1619 5.98909 61.0118 6.82952 61.6416 7.94221C62.2713 9.05017 62.5862 10.4138 62.5862 12.0331ZM58.5237 12.0331C58.5237 11.1619 58.4077 10.428 58.1757 9.83142C57.9484 9.23009 57.6099 8.77554 57.16 8.46778C56.715 8.15528 56.1657 7.99903 55.5123 7.99903C54.8589 7.99903 54.3073 8.15528 53.8575 8.46778C53.4124 8.77554 53.0739 9.23009 52.8419 9.83142C52.6146 10.428 52.501 11.1619 52.501 12.0331C52.501 12.9043 52.6146 13.6406 52.8419 14.2419C53.0739 14.8385 53.4124 15.2931 53.8575 15.6056C54.3073 15.9133 54.8589 16.0672 55.5123 16.0672C56.1657 16.0672 56.715 15.9133 57.16 15.6056C57.6099 15.2931 57.9484 14.8385 58.1757 14.2419C58.4077 13.6406 58.5237 12.9043 58.5237 12.0331ZM77.8436 9.56153C77.7821 9.31058 77.685 9.09041 77.5524 8.90102C77.4199 8.70689 77.2541 8.54354 77.0553 8.41096C76.8612 8.27365 76.6339 8.17185 76.3735 8.10556C76.1178 8.03454 75.8361 7.99903 75.5283 7.99903C74.8654 7.99903 74.2996 8.15765 73.8309 8.47488C73.3668 8.79212 73.0117 9.24903 72.7655 9.84562C72.524 10.4422 72.4033 11.1619 72.4033 12.0047C72.4033 12.857 72.5193 13.5862 72.7513 14.1922C72.9833 14.7983 73.329 15.2623 73.7882 15.5843C74.2475 15.9062 74.8181 16.0672 75.4999 16.0672C76.1012 16.0672 76.6007 15.9796 76.9985 15.8044C77.4009 15.6292 77.7016 15.3807 77.9005 15.0587C78.0993 14.7367 78.1987 14.3579 78.1987 13.9223L78.8806 13.9933H75.5567V11.1808H82.0056V13.1979C82.0056 14.5236 81.7238 15.6576 81.1604 16.5999C80.6017 17.5374 79.8299 18.2571 78.8451 18.759C77.8649 19.2561 76.7404 19.5047 75.4715 19.5047C74.0558 19.5047 72.8129 19.204 71.7428 18.6027C70.6727 18.0014 69.837 17.1444 69.2357 16.0317C68.6391 14.919 68.3408 13.5956 68.3408 12.0615C68.3408 10.8589 68.5231 9.79354 68.8877 8.86551C69.257 7.93748 69.7684 7.15386 70.4218 6.51465C71.0752 5.87071 71.8304 5.38539 72.6874 5.05869C73.5444 4.72725 74.463 4.56153 75.4431 4.56153C76.3048 4.56153 77.105 4.68463 77.8436 4.93085C78.587 5.17232 79.2428 5.51797 79.811 5.96778C80.3839 6.41285 80.8455 6.94079 81.1959 7.55159C81.5463 8.16238 81.7594 8.83236 81.8351 9.56153H77.8436ZM89.1309 19.5047C87.9662 19.5047 86.9624 19.2822 86.1196 18.8371C85.2815 18.3873 84.6352 17.7433 84.1806 16.9053C83.7308 16.0625 83.5059 15.054 83.5059 13.8797C83.5059 12.7528 83.7332 11.768 84.1877 10.9252C84.6423 10.0824 85.2839 9.42659 86.1125 8.95784C86.9411 8.48909 87.9188 8.25471 89.0457 8.25471C89.8696 8.25471 90.6153 8.38255 91.2829 8.63823C91.9505 8.89392 92.5211 9.2656 92.9946 9.75329C93.468 10.2362 93.8326 10.8234 94.0883 11.5147C94.344 12.2059 94.4718 12.9848 94.4718 13.8513V14.7604H84.7275V12.6013H90.8639C90.8591 12.2888 90.7787 12.0142 90.6224 11.7774C90.4709 11.536 90.2649 11.3489 90.0045 11.2164C89.7488 11.079 89.4576 11.0104 89.1309 11.0104C88.8137 11.0104 88.5225 11.079 88.2573 11.2164C87.9922 11.3489 87.7791 11.5336 87.6181 11.7703C87.4619 12.0071 87.379 12.2841 87.3696 12.6013V14.9308C87.3696 15.2812 87.4429 15.5937 87.5897 15.8683C87.7365 16.143 87.9472 16.3584 88.2218 16.5147C88.4965 16.6709 88.8279 16.749 89.2162 16.749C89.486 16.749 89.7322 16.7112 89.9548 16.6354C90.1821 16.5596 90.3762 16.4507 90.5372 16.3087C90.6982 16.1619 90.8165 15.9867 90.8923 15.7831H94.4718C94.3487 16.5407 94.0575 17.1988 93.5983 17.7576C93.139 18.3115 92.5305 18.7424 91.773 19.0502C91.0201 19.3532 90.1394 19.5047 89.1309 19.5047ZM99.9921 13.1695V19.3058H96.0716V8.39676H99.7932V10.4706H99.9068C100.144 9.77933 100.56 9.23719 101.157 8.8442C101.758 8.45121 102.459 8.25471 103.259 8.25471C104.031 8.25471 104.701 8.43227 105.269 8.78738C105.842 9.13776 106.285 9.62071 106.597 10.2362C106.914 10.8518 107.071 11.5549 107.066 12.3456V19.3058H103.145V13.1695C103.15 12.6297 103.013 12.2059 102.734 11.8982C102.459 11.5904 102.075 11.4365 101.583 11.4365C101.261 11.4365 100.979 11.5076 100.738 11.6496C100.501 11.7869 100.319 11.9858 100.191 12.2462C100.063 12.5019 99.9968 12.8096 99.9921 13.1695ZM114.229 19.5047C113.064 19.5047 112.06 19.2822 111.217 18.8371C110.379 18.3873 109.733 17.7433 109.278 16.9053C108.828 16.0625 108.604 15.054 108.604 13.8797C108.604 12.7528 108.831 11.768 109.285 10.9252C109.74 10.0824 110.382 9.42659 111.21 8.95784C112.039 8.48909 113.016 8.25471 114.143 8.25471C114.967 8.25471 115.713 8.38255 116.381 8.63823C117.048 8.89392 117.619 9.2656 118.092 9.75329C118.566 10.2362 118.93 10.8234 119.186 11.5147C119.442 12.2059 119.569 12.9848 119.569 13.8513V14.7604H109.825V12.6013H115.962C115.957 12.2888 115.876 12.0142 115.72 11.7774C115.569 11.536 115.363 11.3489 115.102 11.2164C114.846 11.079 114.555 11.0104 114.229 11.0104C113.911 11.0104 113.62 11.079 113.355 11.2164C113.09 11.3489 112.877 11.5336 112.716 11.7703C112.56 12.0071 112.477 12.2841 112.467 12.6013V14.9308C112.467 15.2812 112.541 15.5937 112.687 15.8683C112.834 16.143 113.045 16.3584 113.319 16.5147C113.594 16.6709 113.926 16.749 114.314 16.749C114.584 16.749 114.83 16.7112 115.052 16.6354C115.28 16.5596 115.474 16.4507 115.635 16.3087C115.796 16.1619 115.914 15.9867 115.99 15.7831H119.569C119.446 16.5407 119.155 17.1988 118.696 17.7576C118.237 18.3115 117.628 18.7424 116.871 19.0502C116.118 19.3532 115.237 19.5047 114.229 19.5047ZM121.169 19.3058V8.39676H124.976V10.4706H125.09C125.289 9.70357 125.603 9.14249 126.034 8.78738C126.47 8.43227 126.979 8.25471 127.561 8.25471C127.732 8.25471 127.9 8.26892 128.066 8.29732C128.236 8.321 128.399 8.35651 128.556 8.40386V11.749C128.362 11.6827 128.122 11.633 127.838 11.5999C127.554 11.5667 127.31 11.5502 127.107 11.5502C126.723 11.5502 126.378 11.6378 126.07 11.8129C125.767 11.9834 125.528 12.2249 125.353 12.5374C125.177 12.8451 125.09 13.2074 125.09 13.624V19.3058H121.169ZM132.373 19.4763C131.677 19.4763 131.062 19.3627 130.527 19.1354C129.996 18.9034 129.58 18.553 129.277 18.0843C128.973 17.6155 128.822 17.0189 128.822 16.2945C128.822 15.6979 128.924 15.1889 129.127 14.7675C129.331 14.3414 129.615 13.9933 129.98 13.7235C130.344 13.4536 130.768 13.2476 131.251 13.1056C131.739 12.9635 132.264 12.8712 132.828 12.8286C133.438 12.7812 133.929 12.7244 134.298 12.6581C134.672 12.5871 134.942 12.49 135.107 12.3669C135.273 12.2391 135.356 12.071 135.356 11.8627V11.8343C135.356 11.5502 135.247 11.3324 135.029 11.1808C134.812 11.0293 134.532 10.9536 134.191 10.9536C133.817 10.9536 133.512 11.0364 133.275 11.2022C133.043 11.3631 132.903 11.6117 132.856 11.9479H129.248C129.295 11.285 129.506 10.6742 129.88 10.1155C130.259 9.55206 130.811 9.10225 131.535 8.76607C132.259 8.42517 133.164 8.25471 134.248 8.25471C135.029 8.25471 135.73 8.34704 136.35 8.5317C136.971 8.71162 137.499 8.96494 137.934 9.29164C138.37 9.61361 138.701 9.9924 138.929 10.428C139.161 10.8589 139.277 11.3276 139.277 11.8343V19.3058H135.612V17.7718H135.527C135.309 18.179 135.044 18.508 134.731 18.759C134.423 19.0099 134.071 19.1922 133.673 19.3058C133.28 19.4195 132.847 19.4763 132.373 19.4763ZM133.652 17.0047C133.95 17.0047 134.229 16.9432 134.49 16.8201C134.755 16.6969 134.97 16.5194 135.136 16.2874C135.302 16.0554 135.384 15.7736 135.384 15.4422V14.5331C135.28 14.5757 135.169 14.616 135.051 14.6539C134.937 14.6917 134.814 14.7272 134.681 14.7604C134.554 14.7935 134.416 14.8243 134.269 14.8527C134.127 14.8811 133.978 14.9072 133.822 14.9308C133.519 14.9782 133.27 15.0563 133.076 15.1652C132.887 15.2694 132.745 15.3996 132.65 15.5558C132.56 15.7074 132.515 15.8778 132.515 16.0672C132.515 16.3702 132.622 16.6022 132.835 16.7632C133.048 16.9242 133.32 17.0047 133.652 17.0047ZM147.655 8.39676V11.2377H140.468V8.39676H147.655ZM141.86 5.78312H145.78V15.7973C145.78 15.9488 145.806 16.0767 145.859 16.1808C145.911 16.2803 145.991 16.356 146.1 16.4081C146.209 16.4555 146.349 16.4791 146.519 16.4791C146.637 16.4791 146.775 16.4649 146.931 16.4365C147.092 16.4081 147.21 16.3844 147.286 16.3655L147.854 19.1212C147.679 19.1733 147.428 19.2372 147.101 19.3129C146.779 19.3887 146.396 19.4384 145.951 19.4621C145.051 19.5094 144.296 19.4171 143.685 19.1851C143.074 18.9484 142.615 18.5767 142.307 18.0701C142 17.5634 141.851 16.929 141.86 16.1666V5.78312ZM154.394 19.5047C153.21 19.5047 152.197 19.2703 151.354 18.8016C150.511 18.3281 149.865 17.67 149.415 16.8272C148.965 15.9796 148.74 14.9971 148.74 13.8797C148.74 12.7623 148.965 11.7822 149.415 10.9394C149.865 10.0918 150.511 9.43369 151.354 8.96494C152.197 8.49145 153.21 8.25471 154.394 8.25471C155.577 8.25471 156.591 8.49145 157.433 8.96494C158.276 9.43369 158.923 10.0918 159.372 10.9394C159.822 11.7822 160.047 12.7623 160.047 13.8797C160.047 14.9971 159.822 15.9796 159.372 16.8272C158.923 17.67 158.276 18.3281 157.433 18.8016C156.591 19.2703 155.577 19.5047 154.394 19.5047ZM154.422 16.607C154.754 16.607 155.04 16.4957 155.281 16.2732C155.523 16.0506 155.71 15.7334 155.843 15.3215C155.975 14.9095 156.041 14.4195 156.041 13.8513C156.041 13.2784 155.975 12.7883 155.843 12.3811C155.71 11.9692 155.523 11.652 155.281 11.4294C155.04 11.2069 154.754 11.0956 154.422 11.0956C154.072 11.0956 153.771 11.2069 153.52 11.4294C153.269 11.652 153.077 11.9692 152.945 12.3811C152.812 12.7883 152.746 13.2784 152.746 13.8513C152.746 14.4195 152.812 14.9095 152.945 15.3215C153.077 15.7334 153.269 16.0506 153.52 16.2732C153.771 16.4957 154.072 16.607 154.422 16.607ZM161.638 19.3058V8.39676H165.445V10.4706H165.558C165.757 9.70357 166.072 9.14249 166.503 8.78738C166.939 8.43227 167.448 8.25471 168.03 8.25471C168.201 8.25471 168.369 8.26892 168.534 8.29732C168.705 8.321 168.868 8.35651 169.024 8.40386V11.749C168.83 11.6827 168.591 11.633 168.307 11.5999C168.023 11.5667 167.779 11.5502 167.576 11.5502C167.192 11.5502 166.846 11.6378 166.539 11.8129C166.236 11.9834 165.996 12.2249 165.821 12.5374C165.646 12.8451 165.558 13.2074 165.558 13.624V19.3058H161.638Z" fill="black"/>
<path d="M33.4988 4.76039V19.3058H29.55V4.76039H33.4988ZM35.3703 19.3058V4.76039H41.6487C42.7282 4.76039 43.6728 4.97346 44.4825 5.3996C45.2921 5.82573 45.9219 6.42469 46.3717 7.19647C46.8215 7.96825 47.0464 8.87024 47.0464 9.90244C47.0464 10.9441 46.8144 11.8461 46.3504 12.6084C45.8911 13.3707 45.2448 13.9578 44.4115 14.3698C43.5829 14.7817 42.6146 14.9877 41.5066 14.9877H37.7566V11.9195H40.7112C41.1752 11.9195 41.5706 11.839 41.8973 11.678C42.2287 11.5123 42.482 11.2779 42.6572 10.9749C42.8371 10.6719 42.9271 10.3144 42.9271 9.90244C42.9271 9.48577 42.8371 9.13066 42.6572 8.8371C42.482 8.5388 42.2287 8.31153 41.8973 8.15528C41.5706 7.99429 41.1752 7.9138 40.7112 7.9138H39.3191V19.3058H35.3703ZM62.5862 12.0331C62.5862 13.6524 62.2713 15.0184 61.6416 16.1311C61.0118 17.2391 60.1619 18.0795 59.0919 18.6524C58.0218 19.2206 56.8286 19.5047 55.5123 19.5047C54.1866 19.5047 52.9886 19.2183 51.9186 18.6453C50.8532 18.0677 50.0057 17.2249 49.376 16.1169C48.751 15.0042 48.4385 13.643 48.4385 12.0331C48.4385 10.4138 48.751 9.05017 49.376 7.94221C50.0057 6.82952 50.8532 5.98909 51.9186 5.4209C52.9886 4.84799 54.1866 4.56153 55.5123 4.56153C56.8286 4.56153 58.0218 4.84799 59.0919 5.4209C60.1619 5.98909 61.0118 6.82952 61.6416 7.94221C62.2713 9.05017 62.5862 10.4138 62.5862 12.0331ZM58.5237 12.0331C58.5237 11.1619 58.4077 10.428 58.1757 9.83142C57.9484 9.23009 57.6099 8.77554 57.16 8.46778C56.715 8.15528 56.1657 7.99903 55.5123 7.99903C54.8589 7.99903 54.3073 8.15528 53.8575 8.46778C53.4124 8.77554 53.0739 9.23009 52.8419 9.83142C52.6146 10.428 52.501 11.1619 52.501 12.0331C52.501 12.9043 52.6146 13.6406 52.8419 14.2419C53.0739 14.8385 53.4124 15.2931 53.8575 15.6056C54.3073 15.9133 54.8589 16.0672 55.5123 16.0672C56.1657 16.0672 56.715 15.9133 57.16 15.6056C57.6099 15.2931 57.9484 14.8385 58.1757 14.2419C58.4077 13.6406 58.5237 12.9043 58.5237 12.0331ZM77.8436 9.56153C77.7821 9.31058 77.685 9.09041 77.5524 8.90102C77.4199 8.70689 77.2541 8.54354 77.0553 8.41096C76.8612 8.27365 76.6339 8.17185 76.3735 8.10556C76.1178 8.03454 75.8361 7.99903 75.5283 7.99903C74.8654 7.99903 74.2996 8.15765 73.8309 8.47488C73.3668 8.79212 73.0117 9.24903 72.7655 9.84562C72.524 10.4422 72.4033 11.1619 72.4033 12.0047C72.4033 12.857 72.5193 13.5862 72.7513 14.1922C72.9833 14.7983 73.329 15.2623 73.7882 15.5843C74.2475 15.9062 74.8181 16.0672 75.4999 16.0672C76.1012 16.0672 76.6007 15.9796 76.9985 15.8044C77.4009 15.6292 77.7016 15.3807 77.9005 15.0587C78.0993 14.7367 78.1987 14.3579 78.1987 13.9223L78.8806 13.9933H75.5567V11.1808H82.0056V13.1979C82.0056 14.5236 81.7238 15.6576 81.1604 16.5999C80.6017 17.5374 79.8299 18.2571 78.8451 18.759C77.8649 19.2561 76.7404 19.5047 75.4715 19.5047C74.0558 19.5047 72.8129 19.204 71.7428 18.6027C70.6727 18.0014 69.837 17.1444 69.2357 16.0317C68.6391 14.919 68.3408 13.5956 68.3408 12.0615C68.3408 10.8589 68.5231 9.79354 68.8877 8.86551C69.257 7.93748 69.7684 7.15386 70.4218 6.51465C71.0752 5.87071 71.8304 5.38539 72.6874 5.05869C73.5444 4.72725 74.463 4.56153 75.4431 4.56153C76.3048 4.56153 77.105 4.68463 77.8436 4.93085C78.587 5.17232 79.2428 5.51797 79.811 5.96778C80.3839 6.41285 80.8455 6.94079 81.1959 7.55159C81.5463 8.16238 81.7594 8.83236 81.8351 9.56153H77.8436ZM89.1309 19.5047C87.9662 19.5047 86.9624 19.2822 86.1196 18.8371C85.2815 18.3873 84.6352 17.7433 84.1806 16.9053C83.7308 16.0625 83.5059 15.054 83.5059 13.8797C83.5059 12.7528 83.7332 11.768 84.1877 10.9252C84.6423 10.0824 85.2839 9.42659 86.1125 8.95784C86.9411 8.48909 87.9188 8.25471 89.0457 8.25471C89.8696 8.25471 90.6153 8.38255 91.2829 8.63823C91.9505 8.89392 92.5211 9.2656 92.9946 9.75329C93.468 10.2362 93.8326 10.8234 94.0883 11.5147C94.344 12.2059 94.4718 12.9848 94.4718 13.8513V14.7604H84.7275V12.6013H90.8639C90.8591 12.2888 90.7787 12.0142 90.6224 11.7774C90.4709 11.536 90.2649 11.3489 90.0045 11.2164C89.7488 11.079 89.4576 11.0104 89.1309 11.0104C88.8137 11.0104 88.5225 11.079 88.2573 11.2164C87.9922 11.3489 87.7791 11.5336 87.6181 11.7703C87.4619 12.0071 87.379 12.2841 87.3696 12.6013V14.9308C87.3696 15.2812 87.4429 15.5937 87.5897 15.8683C87.7365 16.143 87.9472 16.3584 88.2218 16.5147C88.4965 16.6709 88.8279 16.749 89.2162 16.749C89.486 16.749 89.7322 16.7112 89.9548 16.6354C90.1821 16.5596 90.3762 16.4507 90.5372 16.3087C90.6982 16.1619 90.8165 15.9867 90.8923 15.7831H94.4718C94.3487 16.5407 94.0575 17.1988 93.5983 17.7576C93.139 18.3115 92.5305 18.7424 91.773 19.0502C91.0201 19.3532 90.1394 19.5047 89.1309 19.5047ZM99.9921 13.1695V19.3058H96.0716V8.39676H99.7932V10.4706H99.9068C100.144 9.77933 100.56 9.23719 101.157 8.8442C101.758 8.45121 102.459 8.25471 103.259 8.25471C104.031 8.25471 104.701 8.43227 105.269 8.78738C105.842 9.13776 106.285 9.62071 106.597 10.2362C106.914 10.8518 107.071 11.5549 107.066 12.3456V19.3058H103.145V13.1695C103.15 12.6297 103.013 12.2059 102.734 11.8982C102.459 11.5904 102.075 11.4365 101.583 11.4365C101.261 11.4365 100.979 11.5076 100.738 11.6496C100.501 11.7869 100.319 11.9858 100.191 12.2462C100.063 12.5019 99.9968 12.8096 99.9921 13.1695ZM114.229 19.5047C113.064 19.5047 112.06 19.2822 111.217 18.8371C110.379 18.3873 109.733 17.7433 109.278 16.9053C108.828 16.0625 108.604 15.054 108.604 13.8797C108.604 12.7528 108.831 11.768 109.285 10.9252C109.74 10.0824 110.382 9.42659 111.21 8.95784C112.039 8.48909 113.016 8.25471 114.143 8.25471C114.967 8.25471 115.713 8.38255 116.381 8.63823C117.048 8.89392 117.619 9.2656 118.092 9.75329C118.566 10.2362 118.93 10.8234 119.186 11.5147C119.442 12.2059 119.569 12.9848 119.569 13.8513V14.7604H109.825V12.6013H115.962C115.957 12.2888 115.876 12.0142 115.72 11.7774C115.569 11.536 115.363 11.3489 115.102 11.2164C114.846 11.079 114.555 11.0104 114.229 11.0104C113.911 11.0104 113.62 11.079 113.355 11.2164C113.09 11.3489 112.877 11.5336 112.716 11.7703C112.56 12.0071 112.477 12.2841 112.467 12.6013V14.9308C112.467 15.2812 112.541 15.5937 112.687 15.8683C112.834 16.143 113.045 16.3584 113.319 16.5147C113.594 16.6709 113.926 16.749 114.314 16.749C114.584 16.749 114.83 16.7112 115.052 16.6354C115.28 16.5596 115.474 16.4507 115.635 16.3087C115.796 16.1619 115.914 15.9867 115.99 15.7831H119.569C119.446 16.5407 119.155 17.1988 118.696 17.7576C118.237 18.3115 117.628 18.7424 116.871 19.0502C116.118 19.3532 115.237 19.5047 114.229 19.5047ZM121.169 19.3058V8.39676H124.976V10.4706H125.09C125.289 9.70357 125.603 9.14249 126.034 8.78738C126.47 8.43227 126.979 8.25471 127.561 8.25471C127.732 8.25471 127.9 8.26892 128.066 8.29732C128.236 8.321 128.399 8.35651 128.556 8.40386V11.749C128.362 11.6827 128.122 11.633 127.838 11.5999C127.554 11.5667 127.31 11.5502 127.107 11.5502C126.723 11.5502 126.378 11.6378 126.07 11.8129C125.767 11.9834 125.528 12.2249 125.353 12.5374C125.177 12.8451 125.09 13.2074 125.09 13.624V19.3058H121.169ZM132.373 19.4763C131.677 19.4763 131.062 19.3627 130.527 19.1354C129.996 18.9034 129.58 18.553 129.277 18.0843C128.973 17.6155 128.822 17.0189 128.822 16.2945C128.822 15.6979 128.924 15.1889 129.127 14.7675C129.331 14.3414 129.615 13.9933 129.98 13.7235C130.344 13.4536 130.768 13.2476 131.251 13.1056C131.739 12.9635 132.264 12.8712 132.828 12.8286C133.438 12.7812 133.929 12.7244 134.298 12.6581C134.672 12.5871 134.942 12.49 135.107 12.3669C135.273 12.2391 135.356 12.071 135.356 11.8627V11.8343C135.356 11.5502 135.247 11.3324 135.029 11.1808C134.812 11.0293 134.532 10.9536 134.191 10.9536C133.817 10.9536 133.512 11.0364 133.275 11.2022C133.043 11.3631 132.903 11.6117 132.856 11.9479H129.248C129.295 11.285 129.506 10.6742 129.88 10.1155C130.259 9.55206 130.811 9.10225 131.535 8.76607C132.259 8.42517 133.164 8.25471 134.248 8.25471C135.029 8.25471 135.73 8.34704 136.35 8.5317C136.971 8.71162 137.499 8.96494 137.934 9.29164C138.37 9.61361 138.701 9.9924 138.929 10.428C139.161 10.8589 139.277 11.3276 139.277 11.8343V19.3058H135.612V17.7718H135.527C135.309 18.179 135.044 18.508 134.731 18.759C134.423 19.0099 134.071 19.1922 133.673 19.3058C133.28 19.4195 132.847 19.4763 132.373 19.4763ZM133.652 17.0047C133.95 17.0047 134.229 16.9432 134.49 16.8201C134.755 16.6969 134.97 16.5194 135.136 16.2874C135.302 16.0554 135.384 15.7736 135.384 15.4422V14.5331C135.28 14.5757 135.169 14.616 135.051 14.6539C134.937 14.6917 134.814 14.7272 134.681 14.7604C134.554 14.7935 134.416 14.8243 134.269 14.8527C134.127 14.8811 133.978 14.9072 133.822 14.9308C133.519 14.9782 133.27 15.0563 133.076 15.1652C132.887 15.2694 132.745 15.3996 132.65 15.5558C132.56 15.7074 132.515 15.8778 132.515 16.0672C132.515 16.3702 132.622 16.6022 132.835 16.7632C133.048 16.9242 133.32 17.0047 133.652 17.0047ZM147.655 8.39676V11.2377H140.468V8.39676H147.655ZM141.86 5.78312H145.78V15.7973C145.78 15.9488 145.806 16.0767 145.859 16.1808C145.911 16.2803 145.991 16.356 146.1 16.4081C146.209 16.4555 146.349 16.4791 146.519 16.4791C146.637 16.4791 146.775 16.4649 146.931 16.4365C147.092 16.4081 147.21 16.3844 147.286 16.3655L147.854 19.1212C147.679 19.1733 147.428 19.2372 147.101 19.3129C146.779 19.3887 146.396 19.4384 145.951 19.4621C145.051 19.5094 144.296 19.4171 143.685 19.1851C143.074 18.9484 142.615 18.5767 142.307 18.0701C142 17.5634 141.851 16.929 141.86 16.1666V5.78312ZM154.394 19.5047C153.21 19.5047 152.197 19.2703 151.354 18.8016C150.511 18.3281 149.865 17.67 149.415 16.8272C148.965 15.9796 148.74 14.9971 148.74 13.8797C148.74 12.7623 148.965 11.7822 149.415 10.9394C149.865 10.0918 150.511 9.43369 151.354 8.96494C152.197 8.49145 153.21 8.25471 154.394 8.25471C155.577 8.25471 156.591 8.49145 157.433 8.96494C158.276 9.43369 158.923 10.0918 159.372 10.9394C159.822 11.7822 160.047 12.7623 160.047 13.8797C160.047 14.9971 159.822 15.9796 159.372 16.8272C158.923 17.67 158.276 18.3281 157.433 18.8016C156.591 19.2703 155.577 19.5047 154.394 19.5047ZM154.422 16.607C154.754 16.607 155.04 16.4957 155.281 16.2732C155.523 16.0506 155.71 15.7334 155.843 15.3215C155.975 14.9095 156.041 14.4195 156.041 13.8513C156.041 13.2784 155.975 12.7883 155.843 12.3811C155.71 11.9692 155.523 11.652 155.281 11.4294C155.04 11.2069 154.754 11.0956 154.422 11.0956C154.072 11.0956 153.771 11.2069 153.52 11.4294C153.269 11.652 153.077 11.9692 152.945 12.3811C152.812 12.7883 152.746 13.2784 152.746 13.8513C152.746 14.4195 152.812 14.9095 152.945 15.3215C153.077 15.7334 153.269 16.0506 153.52 16.2732C153.771 16.4957 154.072 16.607 154.422 16.607ZM161.638 19.3058V8.39676H165.445V10.4706H165.558C165.757 9.70357 166.072 9.14249 166.503 8.78738C166.939 8.43227 167.448 8.25471 168.03 8.25471C168.201 8.25471 168.369 8.26892 168.534 8.29732C168.705 8.321 168.868 8.35651 169.024 8.40386V11.749C168.83 11.6827 168.591 11.633 168.307 11.5999C168.023 11.5667 167.779 11.5502 167.576 11.5502C167.192 11.5502 166.846 11.6378 166.539 11.8129C166.236 11.9834 165.996 12.2249 165.821 12.5374C165.646 12.8451 165.558 13.2074 165.558 13.624V19.3058H161.638Z" fill="black"/>
<path d="M33.4988 4.76039V19.3058H29.55V4.76039H33.4988ZM35.3703 19.3058V4.76039H41.6487C42.7282 4.76039 43.6728 4.97346 44.4825 5.3996C45.2921 5.82573 45.9219 6.42469 46.3717 7.19647C46.8215 7.96825 47.0464 8.87024 47.0464 9.90244C47.0464 10.9441 46.8144 11.8461 46.3504 12.6084C45.8911 13.3707 45.2448 13.9578 44.4115 14.3698C43.5829 14.7817 42.6146 14.9877 41.5066 14.9877H37.7566V11.9195H40.7112C41.1752 11.9195 41.5706 11.839 41.8973 11.678C42.2287 11.5123 42.482 11.2779 42.6572 10.9749C42.8371 10.6719 42.9271 10.3144 42.9271 9.90244C42.9271 9.48577 42.8371 9.13066 42.6572 8.8371C42.482 8.5388 42.2287 8.31153 41.8973 8.15528C41.5706 7.99429 41.1752 7.9138 40.7112 7.9138H39.3191V19.3058H35.3703ZM62.5862 12.0331C62.5862 13.6524 62.2713 15.0184 61.6416 16.1311C61.0118 17.2391 60.1619 18.0795 59.0919 18.6524C58.0218 19.2206 56.8286 19.5047 55.5123 19.5047C54.1866 19.5047 52.9886 19.2183 51.9186 18.6453C50.8532 18.0677 50.0057 17.2249 49.376 16.1169C48.751 15.0042 48.4385 13.643 48.4385 12.0331C48.4385 10.4138 48.751 9.05017 49.376 7.94221C50.0057 6.82952 50.8532 5.98909 51.9186 5.4209C52.9886 4.84799 54.1866 4.56153 55.5123 4.56153C56.8286 4.56153 58.0218 4.84799 59.0919 5.4209C60.1619 5.98909 61.0118 6.82952 61.6416 7.94221C62.2713 9.05017 62.5862 10.4138 62.5862 12.0331ZM58.5237 12.0331C58.5237 11.1619 58.4077 10.428 58.1757 9.83142C57.9484 9.23009 57.6099 8.77554 57.16 8.46778C56.715 8.15528 56.1657 7.99903 55.5123 7.99903C54.8589 7.99903 54.3073 8.15528 53.8575 8.46778C53.4124 8.77554 53.0739 9.23009 52.8419 9.83142C52.6146 10.428 52.501 11.1619 52.501 12.0331C52.501 12.9043 52.6146 13.6406 52.8419 14.2419C53.0739 14.8385 53.4124 15.2931 53.8575 15.6056C54.3073 15.9133 54.8589 16.0672 55.5123 16.0672C56.1657 16.0672 56.715 15.9133 57.16 15.6056C57.6099 15.2931 57.9484 14.8385 58.1757 14.2419C58.4077 13.6406 58.5237 12.9043 58.5237 12.0331ZM77.8436 9.56153C77.7821 9.31058 77.685 9.09041 77.5524 8.90102C77.4199 8.70689 77.2541 8.54354 77.0553 8.41096C76.8612 8.27365 76.6339 8.17185 76.3735 8.10556C76.1178 8.03454 75.8361 7.99903 75.5283 7.99903C74.8654 7.99903 74.2996 8.15765 73.8309 8.47488C73.3668 8.79212 73.0117 9.24903 72.7655 9.84562C72.524 10.4422 72.4033 11.1619 72.4033 12.0047C72.4033 12.857 72.5193 13.5862 72.7513 14.1922C72.9833 14.7983 73.329 15.2623 73.7882 15.5843C74.2475 15.9062 74.8181 16.0672 75.4999 16.0672C76.1012 16.0672 76.6007 15.9796 76.9985 15.8044C77.4009 15.6292 77.7016 15.3807 77.9005 15.0587C78.0993 14.7367 78.1987 14.3579 78.1987 13.9223L78.8806 13.9933H75.5567V11.1808H82.0056V13.1979C82.0056 14.5236 81.7238 15.6576 81.1604 16.5999C80.6017 17.5374 79.8299 18.2571 78.8451 18.759C77.8649 19.2561 76.7404 19.5047 75.4715 19.5047C74.0558 19.5047 72.8129 19.204 71.7428 18.6027C70.6727 18.0014 69.837 17.1444 69.2357 16.0317C68.6391 14.919 68.3408 13.5956 68.3408 12.0615C68.3408 10.8589 68.5231 9.79354 68.8877 8.86551C69.257 7.93748 69.7684 7.15386 70.4218 6.51465C71.0752 5.87071 71.8304 5.38539 72.6874 5.05869C73.5444 4.72725 74.463 4.56153 75.4431 4.56153C76.3048 4.56153 77.105 4.68463 77.8436 4.93085C78.587 5.17232 79.2428 5.51797 79.811 5.96778C80.3839 6.41285 80.8455 6.94079 81.1959 7.55159C81.5463 8.16238 81.7594 8.83236 81.8351 9.56153H77.8436ZM89.1309 19.5047C87.9662 19.5047 86.9624 19.2822 86.1196 18.8371C85.2815 18.3873 84.6352 17.7433 84.1806 16.9053C83.7308 16.0625 83.5059 15.054 83.5059 13.8797C83.5059 12.7528 83.7332 11.768 84.1877 10.9252C84.6423 10.0824 85.2839 9.42659 86.1125 8.95784C86.9411 8.48909 87.9188 8.25471 89.0457 8.25471C89.8696 8.25471 90.6153 8.38255 91.2829 8.63823C91.9505 8.89392 92.5211 9.2656 92.9946 9.75329C93.468 10.2362 93.8326 10.8234 94.0883 11.5147C94.344 12.2059 94.4718 12.9848 94.4718 13.8513V14.7604H84.7275V12.6013H90.8639C90.8591 12.2888 90.7787 12.0142 90.6224 11.7774C90.4709 11.536 90.2649 11.3489 90.0045 11.2164C89.7488 11.079 89.4576 11.0104 89.1309 11.0104C88.8137 11.0104 88.5225 11.079 88.2573 11.2164C87.9922 11.3489 87.7791 11.5336 87.6181 11.7703C87.4619 12.0071 87.379 12.2841 87.3696 12.6013V14.9308C87.3696 15.2812 87.4429 15.5937 87.5897 15.8683C87.7365 16.143 87.9472 16.3584 88.2218 16.5147C88.4965 16.6709 88.8279 16.749 89.2162 16.749C89.486 16.749 89.7322 16.7112 89.9548 16.6354C90.1821 16.5596 90.3762 16.4507 90.5372 16.3087C90.6982 16.1619 90.8165 15.9867 90.8923 15.7831H94.4718C94.3487 16.5407 94.0575 17.1988 93.5983 17.7576C93.139 18.3115 92.5305 18.7424 91.773 19.0502C91.0201 19.3532 90.1394 19.5047 89.1309 19.5047ZM99.9921 13.1695V19.3058H96.0716V8.39676H99.7932V10.4706H99.9068C100.144 9.77933 100.56 9.23719 101.157 8.8442C101.758 8.45121 102.459 8.25471 103.259 8.25471C104.031 8.25471 104.701 8.43227 105.269 8.78738C105.842 9.13776 106.285 9.62071 106.597 10.2362C106.914 10.8518 107.071 11.5549 107.066 12.3456V19.3058H103.145V13.1695C103.15 12.6297 103.013 12.2059 102.734 11.8982C102.459 11.5904 102.075 11.4365 101.583 11.4365C101.261 11.4365 100.979 11.5076 100.738 11.6496C100.501 11.7869 100.319 11.9858 100.191 12.2462C100.063 12.5019 99.9968 12.8096 99.9921 13.1695ZM114.229 19.5047C113.064 19.5047 112.06 19.2822 111.217 18.8371C110.379 18.3873 109.733 17.7433 109.278 16.9053C108.828 16.0625 108.604 15.054 108.604 13.8797C108.604 12.7528 108.831 11.768 109.285 10.9252C109.74 10.0824 110.382 9.42659 111.21 8.95784C112.039 8.48909 113.016 8.25471 114.143 8.25471C114.967 8.25471 115.713 8.38255 116.381 8.63823C117.048 8.89392 117.619 9.2656 118.092 9.75329C118.566 10.2362 118.93 10.8234 119.186 11.5147C119.442 12.2059 119.569 12.9848 119.569 13.8513V14.7604H109.825V12.6013H115.962C115.957 12.2888 115.876 12.0142 115.72 11.7774C115.569 11.536 115.363 11.3489 115.102 11.2164C114.846 11.079 114.555 11.0104 114.229 11.0104C113.911 11.0104 113.62 11.079 113.355 11.2164C113.09 11.3489 112.877 11.5336 112.716 11.7703C112.56 12.0071 112.477 12.2841 112.467 12.6013V14.9308C112.467 15.2812 112.541 15.5937 112.687 15.8683C112.834 16.143 113.045 16.3584 113.319 16.5147C113.594 16.6709 113.926 16.749 114.314 16.749C114.584 16.749 114.83 16.7112 115.052 16.6354C115.28 16.5596 115.474 16.4507 115.635 16.3087C115.796 16.1619 115.914 15.9867 115.99 15.7831H119.569C119.446 16.5407 119.155 17.1988 118.696 17.7576C118.237 18.3115 117.628 18.7424 116.871 19.0502C116.118 19.3532 115.237 19.5047 114.229 19.5047ZM121.169 19.3058V8.39676H124.976V10.4706H125.09C125.289 9.70357 125.603 9.14249 126.034 8.78738C126.47 8.43227 126.979 8.25471 127.561 8.25471C127.732 8.25471 127.9 8.26892 128.066 8.29732C128.236 8.321 128.399 8.35651 128.556 8.40386V11.749C128.362 11.6827 128.122 11.633 127.838 11.5999C127.554 11.5667 127.31 11.5502 127.107 11.5502C126.723 11.5502 126.378 11.6378 126.07 11.8129C125.767 11.9834 125.528 12.2249 125.353 12.5374C125.177 12.8451 125.09 13.2074 125.09 13.624V19.3058H121.169ZM132.373 19.4763C131.677 19.4763 131.062 19.3627 130.527 19.1354C129.996 18.9034 129.58 18.553 129.277 18.0843C128.973 17.6155 128.822 17.0189 128.822 16.2945C128.822 15.6979 128.924 15.1889 129.127 14.7675C129.331 14.3414 129.615 13.9933 129.98 13.7235C130.344 13.4536 130.768 13.2476 131.251 13.1056C131.739 12.9635 132.264 12.8712 132.828 12.8286C133.438 12.7812 133.929 12.7244 134.298 12.6581C134.672 12.5871 134.942 12.49 135.107 12.3669C135.273 12.2391 135.356 12.071 135.356 11.8627V11.8343C135.356 11.5502 135.247 11.3324 135.029 11.1808C134.812 11.0293 134.532 10.9536 134.191 10.9536C133.817 10.9536 133.512 11.0364 133.275 11.2022C133.043 11.3631 132.903 11.6117 132.856 11.9479H129.248C129.295 11.285 129.506 10.6742 129.88 10.1155C130.259 9.55206 130.811 9.10225 131.535 8.76607C132.259 8.42517 133.164 8.25471 134.248 8.25471C135.029 8.25471 135.73 8.34704 136.35 8.5317C136.971 8.71162 137.499 8.96494 137.934 9.29164C138.37 9.61361 138.701 9.9924 138.929 10.428C139.161 10.8589 139.277 11.3276 139.277 11.8343V19.3058H135.612V17.7718H135.527C135.309 18.179 135.044 18.508 134.731 18.759C134.423 19.0099 134.071 19.1922 133.673 19.3058C133.28 19.4195 132.847 19.4763 132.373 19.4763ZM133.652 17.0047C133.95 17.0047 134.229 16.9432 134.49 16.8201C134.755 16.6969 134.97 16.5194 135.136 16.2874C135.302 16.0554 135.384 15.7736 135.384 15.4422V14.5331C135.28 14.5757 135.169 14.616 135.051 14.6539C134.937 14.6917 134.814 14.7272 134.681 14.7604C134.554 14.7935 134.416 14.8243 134.269 14.8527C134.127 14.8811 133.978 14.9072 133.822 14.9308C133.519 14.9782 133.27 15.0563 133.076 15.1652C132.887 15.2694 132.745 15.3996 132.65 15.5558C132.56 15.7074 132.515 15.8778 132.515 16.0672C132.515 16.3702 132.622 16.6022 132.835 16.7632C133.048 16.9242 133.32 17.0047 133.652 17.0047ZM147.655 8.39676V11.2377H140.468V8.39676H147.655ZM141.86 5.78312H145.78V15.7973C145.78 15.9488 145.806 16.0767 145.859 16.1808C145.911 16.2803 145.991 16.356 146.1 16.4081C146.209 16.4555 146.349 16.4791 146.519 16.4791C146.637 16.4791 146.775 16.4649 146.931 16.4365C147.092 16.4081 147.21 16.3844 147.286 16.3655L147.854 19.1212C147.679 19.1733 147.428 19.2372 147.101 19.3129C146.779 19.3887 146.396 19.4384 145.951 19.4621C145.051 19.5094 144.296 19.4171 143.685 19.1851C143.074 18.9484 142.615 18.5767 142.307 18.0701C142 17.5634 141.851 16.929 141.86 16.1666V5.78312ZM154.394 19.5047C153.21 19.5047 152.197 19.2703 151.354 18.8016C150.511 18.3281 149.865 17.67 149.415 16.8272C148.965 15.9796 148.74 14.9971 148.74 13.8797C148.74 12.7623 148.965 11.7822 149.415 10.9394C149.865 10.0918 150.511 9.43369 151.354 8.96494C152.197 8.49145 153.21 8.25471 154.394 8.25471C155.577 8.25471 156.591 8.49145 157.433 8.96494C158.276 9.43369 158.923 10.0918 159.372 10.9394C159.822 11.7822 160.047 12.7623 160.047 13.8797C160.047 14.9971 159.822 15.9796 159.372 16.8272C158.923 17.67 158.276 18.3281 157.433 18.8016C156.591 19.2703 155.577 19.5047 154.394 19.5047ZM154.422 16.607C154.754 16.607 155.04 16.4957 155.281 16.2732C155.523 16.0506 155.71 15.7334 155.843 15.3215C155.975 14.9095 156.041 14.4195 156.041 13.8513C156.041 13.2784 155.975 12.7883 155.843 12.3811C155.71 11.9692 155.523 11.652 155.281 11.4294C155.04 11.2069 154.754 11.0956 154.422 11.0956C154.072 11.0956 153.771 11.2069 153.52 11.4294C153.269 11.652 153.077 11.9692 152.945 12.3811C152.812 12.7883 152.746 13.2784 152.746 13.8513C152.746 14.4195 152.812 14.9095 152.945 15.3215C153.077 15.7334 153.269 16.0506 153.52 16.2732C153.771 16.4957 154.072 16.607 154.422 16.607ZM161.638 19.3058V8.39676H165.445V10.4706H165.558C165.757 9.70357 166.072 9.14249 166.503 8.78738C166.939 8.43227 167.448 8.25471 168.03 8.25471C168.201 8.25471 168.369 8.26892 168.534 8.29732C168.705 8.321 168.868 8.35651 169.024 8.40386V11.749C168.83 11.6827 168.591 11.633 168.307 11.5999C168.023 11.5667 167.779 11.5502 167.576 11.5502C167.192 11.5502 166.846 11.6378 166.539 11.8129C166.236 11.9834 165.996 12.2249 165.821 12.5374C165.646 12.8451 165.558 13.2074 165.558 13.624V19.3058H161.638Z" fill="black"/>
<path d="M21.2959 0H3.04227C1.36207 0 0 1.32602 0 2.96174V20.7322C0 22.3679 1.36207 23.694 3.04227 23.694H21.2959C22.9761 23.694 24.3382 22.3679 24.3382 20.7322V2.96174C24.3382 1.32602 22.9761 0 21.2959 0Z" fill="#3147FF"/>
<path d="M17.4182 2.37463L6.00458 10.7061L11.0396 12.7962L5.93665 21.1334L18.1034 12.4081L13.2426 9.75451L17.4182 2.37463Z" fill="white"/>
</g>
<defs>
<clipPath id="clip0_7_35">
<rect width="172" height="24" fill="white"/>
</clipPath>
</defs>
</svg>
